{"title":"Jhuluk - Ek Mohak Sparsh 2005 Marathi 1080p WebHD x264 AAC [TMB]","uid":15533897,"size":3229453506,"categoryP":"video","categoryS":"movies","magnet":"?xt=urn:btih:40922d0c65faeb0b5cc04465a6b67003ec28d9c3&amp;dn=Jhuluk+-+Ek+Mohak+Sparsh+2005+Marathi+1080p+WebHD+x264+AAC+%5BTMB%5D&amp;tr=udp%3A%2F%2Ftracker.leechers-paradise.org%3A6969&amp;tr=udp%3A%2F%2Fzer0day.ch%3A1337&amp;tr=udp%3A%2F%2Fopen.demonii.com%3A1337&amp;tr=udp%3A%2F%2Ftracker.coppersurfer.tk%3A6969&amp;tr=udp%3A%2F%2Fexodus.desync.com%3A6969","seeders":3,"leechers":0,"uploader":"Manoj_vb","files":1,"time":1470860578,"description":"http://i1306.photobucket.com/albums/s570/zyx55e/44_zpsc46e809d.gif\r\n \nhttps://s25.postimg.org/xm8c58fen/vlcsnap_0556_10_14_22h02m43s941.png\r\n \nhttps://s25.postimg.org/utf4l7f27/vlcsnap_2367_07_23_12h18m31s488.png\r\n \nhttps://s25.postimg.org/bcz0cf9bz/vlcsnap_2933_06_20_10h27m56s698.png\r\n \nhttps://s25.postimg.org/kysksq0hr/vlcsnap_3161_09_28_14h51m41s624.png\r\n \nhttps://s25.postimg.org/wp6ia3ta7/vlcsnap_4720_07_04_07h18m28s708.png\r\n \nhttps://s25.postimg.org/tjlwjwanz/vlcsnap_5811_03_06_14h32m23s727.png\r\n \nhttps://s25.postimg.org/buu5s9ywv/vlcsnap_7751_07_19_04h04m30s538.png\r\n \nhttps://s25.postimg.org/8ci5vvy0v/vlcsnap_8257_06_13_03h42m52s961.png\r\n \nhttps://s25.postimg.org/yyumkv27z/vlcsnap_8329_09_18_19h05m56s208.png\r\n \nhttp://i1306.photobucket.com/albums/s570/zyx55e/oie_11162011MOJeDGQI_zpsc25b2b81.gif\r\n\r\nGeneral\r\nComplete name               : Jhuluk - Ek Mohak Sparsh 2005 1080p WebHD x264 AAC [TMB].mp4\r\nFormat                      : MPEG-4\r\nFormat profile              : Base Media\r\nCodec ID                    : isom (isom/iso2/avc1/mp41)\r\nFile size                   : 3.01 GiB\r\nDuration                    : 1h 52mn\r\nOverall bit rate mode       : Variable\r\nOverall bit rate            : 3 827 Kbps\r\n\r\nVideo\r\nFormat                      : AVC\r\nFormat/Info                 : Advanced Video Codec\r\nFormat profile              :   \r\nFormat settings, CABAC      : Yes\r\nFormat settings, ReFrames   : 2 frames\r\nCodec ID                    : avc1\r\nCodec ID/Info               : Advanced Video Coding\r\nDuration                    : 1h 52mn\r\nBit rate                    : 3 698 Kbps\r\nWidth                       : 1 920 pixels\r\nHeight                      : 1 080 pixels\r\nDisplay aspect ratio        : 16:9\r\nFrame rate mode             : Constant\r\nFrame rate                  : 25.000 fps\r\nColor space                 : YUV\r\nChroma subsampling          : 4:2:0\r\nBit depth                   : 8 bits\r\nScan type                   : Progressive\r\nBits/(Pixel*Frame)          : 0.071\r\nStream size                 : 2.91 GiB (97%)\r\n\r\nAudio\r\nFormat                      : AAC\r\nFormat/Info                 : Advanced Audio Codec\r\nFormat profile              : LC\r\nCodec ID                    : 40\r\nDuration                    : 1h 52mn\r\nBit rate mode               : Variable\r\nBit rate                    : 126 Kbps\r\nChannel(s)                  : 2 channels\r\nChannel positions           : Front: L R\r\nSampling rate               : 44.1 KHz\r\nFrame rate                  : 43.066 fps (1024 spf)\r\nCompression mode            : Lossy\r\nStream size                 : 101 MiB (3%)\r\n\r\nUploaded &amp; Shared by Manojvb\r\n\r\nSeeding 24x7... Extreme Seeding...\r\n\r\n \nhttp://i1306.photobucket.com/albums/s570/zyx55e/oie_1117625zVIGKvnK_zpsc8b6e055.gif","torrent":{"xt":"urn:btih:40922d0c65faeb0b5cc04465a6b67003ec28d9c3","amp;dn":"Jhuluk+-+Ek+Mohak+Sparsh+2005+Marathi+1080p+WebHD+x264+AAC+%5BTMB%5D","amp;tr":["udp%3A%2F%2Ftracker.leechers-paradise.org%3A6969","udp%3A%2F%2Fzer0day.ch%3A1337","udp%3A%2F%2Fopen.demonii.com%3A1337","udp%3A%2F%2Ftracker.coppersurfer.tk%3A6969","udp%3A%2F%2Fexodus.desync.com%3A6969"],"infoHash":"40922d0c65faeb0b5cc04465a6b67003ec28d9c3","infoHashBuffer":{"type":"Buffer","data":[64,146,45,12,101,250,235,11,92,192,68,101,166,182,112,3,236,40,217,195]},"announce":[],"urlList":[]}}